<?xml version="1.0" standalone="no"?>
<!DOCTYPE svg PUBLIC "-//W3C//DTD SVG 20010904//EN"
 "http://www.w3.org/TR/2001/REC-SVG-20010904/DTD/svg10.dtd">
<svg version="1.0" xmlns="http://www.w3.org/2000/svg"
 width="142.000000pt" height="142.000000pt" viewBox="0 0 142.000000 142.000000"
 preserveAspectRatio="xMidYMid meet">
<metadata>
Created by potrace 1.11, written by Peter Selinger 2001-2013
</metadata>
<g transform="translate(0.000000,142.000000) scale(0.100000,-0.100000)"
fill="#000000" stroke="none">
<path d="M580 952 c-65 -5 -140 -23 -154 -38 -8 -7 -12 -22 -9 -33 5 -18 6
-18 67 0 109 33 212 27 237 -13 33 -52 -49 -166 -94 -130 -15 12 -67 21 -83
15 -10 -3 -7 -11 8 -26 11 -12 52 -60 92 -106 116 -138 107 -131 170 -134 31
-2 56 -1 56 2 0 4 -38 47 -85 96 -46 50 -84 94 -85 99 0 4 18 26 39 47 69 66
73 155 10 193 -33 19 -113 33 -169 28z"/>
<path d="M838 932 c-13 -3 -16 -28 -16 -172 l-1 -169 27 -31 c14 -16 30 -30
34 -30 5 0 8 40 8 90 l0 89 49 7 c41 5 48 9 44 25 -4 15 -15 19 -49 19 l-44 0
0 55 0 54 81 3 c81 3 82 3 85 31 3 26 1 27 -49 28 -29 0 -75 1 -103 2 -28 1
-58 1 -66 -1z"/>
<path d="M420 566 c0 -2 7 -7 16 -10 8 -3 12 -2 9 4 -6 10 -25 14 -25 6z"/>
<path d="M387 548 c-6 -18 10 -58 24 -58 8 0 8 4 -1 15 -6 8 -9 23 -5 35 7 21
-10 29 -18 8z"/>
<path d="M476 543 c-3 -4 -6 -18 -6 -32 0 -21 2 -23 10 -11 9 13 10 13 10 0 0
-13 1 -13 10 0 5 8 10 20 10 26 0 14 -25 26 -34 17z m19 -13 c3 -5 1 -10 -4
-10 -6 0 -11 5 -11 10 0 6 2 10 4 10 3 0 8 -4 11 -10z"/>
<path d="M522 515 c0 -16 2 -22 5 -12 2 9 2 23 0 30 -3 6 -5 -1 -5 -18z"/>
<path d="M572 516 c2 -20 5 -22 20 -12 10 6 18 17 18 25 0 11 -4 10 -16 -5
-13 -16 -15 -16 -10 -1 3 9 1 17 -4 17 -5 0 -9 -11 -8 -24z"/>
<path d="M622 515 c0 -16 2 -22 5 -12 2 9 2 23 0 30 -3 6 -5 -1 -5 -18z"/>
<path d="M650 530 c0 -5 5 -10 11 -10 5 0 7 5 4 10 -3 6 -8 10 -11 10 -2 0 -4
-4 -4 -10z"/>
<path d="M437 509 c-3 -12 -1 -19 5 -17 13 5 20 38 8 38 -4 0 -10 -9 -13 -21z"/>
</g>
</svg>
